HIERARCHY
ROOT Hips
{
	OFFSET -3.958830 18.904000 13.208200
	CHANNELS 6 Xposition Yposition Zposition Zrotation Yrotation Xrotation 
	JOINT LHipJoint
	{
		OFFSET 0.000000 0.000000 0.000000
		CHANNELS 3 Zrotation Yrotation Xrotation
		JOINT LeftUpLeg
		{
			OFFSET 1.800000 -1.400000 0.085000
			CHANNELS 3 Zrotation Yrotation Xrotation
			JOINT LeftLeg
			{
				OFFSET 2.215000 -6.000000 0.000000
				CHANNELS 3 Zrotation Yrotation Xrotation
				JOINT LeftFoot
				{
					OFFSET 2.500000 -6.900000 0.000000
					CHANNELS 3 Zrotation Yrotation Xrotation
					JOINT LeftToeBase
					{
						OFFSET 0.200000 -0.500000 1.950000
						CHANNELS 3 Zrotation Yrotation Xrotation
						End Site
						{
							OFFSET 0.000000 0.000000 0.000000
						}
					}
				}
			}
		}
	}
	JOINT RHipJoint
	{
		OFFSET 0.000000 0.000000 0.000000
		CHANNELS 3 Zrotation Yrotation Xrotation
		JOINT RightUpLeg
		{
			OFFSET -1.800000 -1.400000 0.085000
			CHANNELS 3 Zrotation Yrotation Xrotation
			JOINT RightLeg
			{
				OFFSET -2.215000 -6.000000 0.000000
				CHANNELS 3 Zrotation Yrotation Xrotation
				JOINT RightFoot
				{
					OFFSET -2.500000 -6.900000 0.000000
					CHANNELS 3 Zrotation Yrotation Xrotation
					JOINT RightToeBase
					{
						OFFSET -0.200000 -0.500000 1.950000
						CHANNELS 3 Zrotation Yrotation Xrotation
						End Site
						{
							OFFSET 0.000000 0.000000 0.000000
						}
					}
				}
			}
		}
	}
	JOINT LowerBack
	{
		OFFSET 0.000000 0.000000 0.000000
		CHANNELS 3 Zrotation Yrotation Xrotation
		JOINT Spine
		{
			OFFSET -0.087000 1.940000 -0.288900
			CHANNELS 3 Zrotation Yrotation Xrotation
			JOINT Spine1
			{
				OFFSET 0.000000 1.950000 0.060000
				CHANNELS 3 Zrotation Yrotation Xrotation
				JOINT Neck
				{
					OFFSET 0.000000 0.000000 0.000000
					CHANNELS 3 Zrotation Yrotation Xrotation
					JOINT Neck1
					{
						OFFSET 0.000000 1.600000 0.340000
						CHANNELS 3 Zrotation Yrotation Xrotation
						JOINT Head
						{
							OFFSET 0.000000 1.667000 -0.240000
							CHANNELS 3 Zrotation Yrotation Xrotation
							End Site
							{
								OFFSET 0.000000 0.000000 0.000000
							}
						}
					}
				}
				JOINT LeftShoulder
				{
					OFFSET 0.000000 0.000000 0.000000
					CHANNELS 3 Zrotation Yrotation Xrotation
					JOINT LeftArm
					{
						OFFSET 2.700000 1.550000 -0.730000
						CHANNELS 3 Zrotation Yrotation Xrotation
						JOINT LeftForeArm
						{
							OFFSET 5.450000 0.000000 0.000000
							CHANNELS 3 Zrotation Yrotation Xrotation
							JOINT LeftHand
							{
								OFFSET 3.450000 0.000000 0.000000
								CHANNELS 3 Zrotation Yrotation Xrotation
								JOINT LeftHandIndex1
								{
									OFFSET 0.750000 0.000000 0.000000
									CHANNELS 3 Zrotation Yrotation Xrotation
									End Site
									{
										OFFSET 0.000000 0.000000 0.000000
									}
								}
							}
						}
					}
				}
				JOINT RightShoulder
				{
					OFFSET 0.000000 0.000000 0.000000
					CHANNELS 3 Zrotation Yrotation Xrotation
					JOINT RightArm
					{
						OFFSET -2.700000 1.550000 -0.730000
						CHANNELS 3 Zrotation Yrotation Xrotation
						JOINT RightForeArm
						{
							OFFSET -5.450000 0.000000 0.000000
							CHANNELS 3 Zrotation Yrotation Xrotation
							JOINT RightHand
							{
								OFFSET -3.450000 0.000000 0.000000
								CHANNELS 3 Zrotation Yrotation Xrotation
								JOINT RightHandIndex1
								{
									OFFSET -0.750000 0.000000 0.000000
									CHANNELS 3 Zrotation Yrotation Xrotation
									End Site
									{
										OFFSET 0.000000 0.000000 0.000000
									}
								}
							}
						}
					}
				}
			}
		}
	}
}
MOTION
Frames: 12
Frame Time: 0.016667
-0.504060 17.485430 -3.342700 8.261784 -21.442791 -19.841172 -15.691173 12.094937 5.670968 -8.031394 -4.708194 -67.770133 15.581157 3.872887 11.402752 -0.383687 2.341078 3.527796 0.739870 0.598680 0.608290 17.958604 -9.762505 2.218611 -9.902435 0.259111 8.673700 8.370620 -6.656887 12.603932 -0.969496 -4.858608 2.715480 0.168650 -0.322150 0.212380 -2.328699 -3.339697 -8.788011 -3.862860 5.779858 46.699713 1.612961 7.041247 7.964960 3.579046 -9.849114 -13.508709 -18.673838 14.198682 48.431263 -7.234160 5.272650 -25.960880 -23.312195 -13.184025 6.857913 -50.919428 11.739605 -19.328807 -63.158530 -20.149582 0.401137 -3.147892 3.156595 0.689480 -0.341220 0.468050 0.131850 16.811624 30.824579 8.305710 33.497262 33.640005 -8.609835 -105.370886 67.158171 -90.369820 2.398420 1.467233 0.154930 0.130400 -0.269950 -0.152420 
-0.499570 17.484620 -3.339060 9.061216 -22.077511 -20.836448 -15.735686 11.979632 5.825246 -5.258845 -3.716217 -70.298818 12.805614 4.438797 17.565697 -0.357591 3.045488 3.259967 0.727800 0.579280 0.613390 17.948772 -9.671162 2.142565 -10.818749 0.606773 9.277270 8.503110 -6.764741 12.866801 -0.972818 -4.963361 2.677186 0.174250 -0.311280 0.204300 -2.264518 -3.381100 -8.829754 -4.593795 6.627504 47.246768 1.889152 7.683015 8.941526 3.554031 -9.559055 -13.619558 -17.975287 13.673401 47.841956 -7.712660 5.246980 -25.959380 -22.632524 -13.908530 7.310895 -49.652251 11.883546 -19.277025 -67.010169 -21.409040 1.367602 -3.161760 3.160588 0.696870 -0.327990 0.455210 0.124930 16.149037 31.709847 8.315109 31.951725 33.848038 -9.975737 -105.441864 65.805417 -89.157326 2.362650 1.170676 0.127420 0.145900 -0.261790 -0.168080 
-0.489170 17.469100 -3.332550 9.456311 -22.693599 -21.652597 -15.740767 11.841274 5.940188 -2.146087 -2.459454 -71.327520 11.155226 5.107318 22.253015 -0.301787 3.822997 2.942635 0.753520 0.613330 0.621790 17.977407 -9.644738 2.064033 -11.429463 0.786957 9.737856 8.405877 -6.878552 13.546518 -0.983163 -5.084343 2.617723 0.200590 -0.328410 0.220000 -2.316128 -3.255586 -8.843959 -4.499284 6.740730 47.741092 1.699224 7.871329 10.681332 3.316705 -9.688350 -13.614645 -18.069553 13.628887 45.936644 -7.588000 5.157300 -26.230010 -20.429637 -14.459329 8.000824 -47.972065 11.785830 -18.967604 -73.085539 -23.217368 3.147689 -3.161798 3.257391 0.674680 -0.320580 0.449380 0.118190 14.326656 32.551023 7.845623 30.338850 35.090402 -10.964666 -105.705880 63.434036 -87.511361 2.334737 0.697719 0.147120 0.111280 -0.267830 -0.170450 
-0.483930 17.463130 -3.322600 10.231386 -22.075913 -22.078177 -15.796359 11.609797 6.205152 0.425763 -2.276421 -72.649366 9.175860 5.824481 25.644762 -0.276287 4.486466 2.705817 0.743890 0.600980 0.607110 17.980123 -9.523580 1.936068 -12.339343 0.983688 9.922815 8.525875 -7.013883 13.954861 -0.974763 -5.189585 2.571969 0.210470 -0.290620 0.240700 -2.276069 -3.264690 -8.906024 -5.353356 7.138545 47.700031 2.199609 7.891662 12.426934 2.870576 -9.297590 -13.482912 -17.120338 12.793774 44.133138 -7.183910 4.785480 -25.835000 -18.179276 -15.365816 8.708157 -45.168470 11.253170 -17.850346 -79.108357 -24.678435 5.261909 -3.205378 3.321999 0.655140 -0.282790 0.424110 0.119360 12.872299 33.305671 7.407031 28.519943 35.628268 -11.702977 -107.442171 60.372021 -87.755261 2.325018 0.223794 0.136640 0.110020 -0.252090 -0.168450 
-0.477380 17.470210 -3.302960 11.840143 -21.746240 -22.722516 -15.950281 11.241826 6.684096 6.126499 -0.704639 -74.626117 3.968450 7.982441 29.892680 -0.193372 5.798048 2.237204 0.743380 0.618520 0.613890 17.952752 -9.217147 1.648010 -13.962205 1.388472 9.909076 8.624535 -7.193378 14.862901 -0.948249 -5.292632 2.539082 0.238260 -0.258260 0.237970 -2.066963 -3.514324 -9.034498 -7.803607 8.368179 47.150272 3.667346 8.132988 14.368726 2.178381 -8.867197 -12.655457 -16.135985 12.093392 41.707189 -7.891110 4.690120 -26.132170 -16.062092 -15.189150 9.185406 -41.528755 10.631152 -15.856959 -87.391572 -27.951733 10.383001 -3.255969 3.387116 0.610460 -0.238000 0.396670 0.118900 11.794902 33.247598 6.140171 26.569303 36.891471 -10.440233 -110.027636 56.882784 -88.730945 2.271422 -0.193724 0.126460 0.132870 -0.250090 -0.167790 
-0.463510 17.499310 -3.273660 13.668049 -22.563074 -23.585151 -16.081053 11.041809 7.023947 11.634047 1.337268 -73.668268 -2.854730 10.928929 33.612269 -0.087295 7.348813 1.686965 0.746140 0.612770 0.641380 17.916242 -9.009332 1.347655 -15.569052 1.775232 9.424123 7.896191 -7.238341 16.248558 -0.910550 -5.317933 2.519210 0.255690 -0.251720 0.241860 -1.834526 -3.787526 -9.099128 -10.410783 9.951747 46.381245 4.826102 8.762072 15.861537 1.799722 -8.191083 -12.051723 -14.801990 11.613814 40.415071 -8.994320 5.049530 -26.637440 -15.193619 -15.071720 9.623658 -37.443740 10.882223 -14.113548 -94.820451 -31.038440 16.106205 -3.289938 3.436217 0.609650 -0.211070 0.381780 0.106540 11.314423 33.129186 5.275028 25.277201 37.787037 -9.436220 -112.476558 54.371526 -89.998238 2.221130 -0.460982 0.103170 0.138510 -0.246040 -0.194020 
-0.441080 17.528070 -3.251310 14.370010 -23.134963 -24.224431 -16.137605 10.989374 7.186205 14.354771 1.726388 -71.837468 -7.670505 13.055556 36.170155 0.033686 8.361313 1.346709 0.736250 0.597660 0.655390 17.900823 -8.931847 1.164987 -16.190977 1.902344 8.864010 7.355885 -7.318268 17.835882 -0.884806 -5.335711 2.500776 0.261510 -0.246390 0.237840 -1.716467 -3.968123 -9.098158 -11.515960 10.582477 46.321101 5.556668 8.882480 17.120470 1.588209 -7.871912 -11.776937 -14.052346 11.394820 39.302272 -9.789180 5.239510 -26.939290 -13.905644 -14.770863 10.156011 -35.208699 12.102172 -13.341601 -99.773097 -33.142141 20.344359 -3.305151 3.463640 0.607800 -0.197230 0.369820 0.093220 10.215120 32.876832 4.597659 24.600626 38.585131 -8.781808 -114.846502 52.352546 -91.700956 2.198150 -0.648977 0.082990 0.146390 -0.238100 -0.210720 
-0.413750 17.561360 -3.215220 14.644261 -24.098938 -24.719008 -16.136818 11.026783 7.217954 15.808982 1.522495 -69.634307 -10.028182 14.980703 40.202784 0.201700 9.301744 1.046736 0.722170 0.580820 0.644460 17.904657 -8.967265 1.044446 -16.640483 1.969913 8.147408 6.710032 -7.357052 19.366548 -0.862502 -5.341244 2.506639 0.253070 -0.229380 0.237360 -1.691351 -3.995334 -9.079157 -11.525566 10.527505 46.228263 5.615951 8.752266 17.895683 1.491094 -7.939391 -11.900427 -14.337137 11.680166 39.536950 -10.149250 5.292210 -26.482160 -12.655448 -14.750310 10.482150 -33.764231 12.830380 -13.003338 -101.289688 -32.669925 20.387551 -3.317058 3.458441 0.605740 -0.182760 0.359720 0.093860 9.061741 32.798105 4.481100 24.495828 38.970703 -8.149210 -117.412556 50.848101 -94.230615 2.181520 -0.785250 0.074940 0.157290 -0.226990 -0.211020 
-0.374400 17.596660 -3.168100 14.409553 -25.260264 -25.202897 -16.053186 11.155205 7.074085 16.413653 1.104777 -65.921781 -11.778949 16.676793 43.616299 0.348345 10.036437 0.812600 0.710510 0.560140 0.649490 17.938173 -9.152081 1.020860 -16.838507 2.068228 7.310952 6.339652 -7.472176 21.234333 -0.854423 -5.388649 2.479614 0.248950 -0.232590 0.228590 -1.815584 -3.799131 -9.011054 -10.083157 9.742966 46.900965 4.699656 8.423559 18.133632 1.500180 -8.158851 -11.946407 -14.848003 11.980307 39.543985 -10.386830 5.161580 -26.582300 -12.199223 -14.660320 10.479845 -31.389304 13.705223 -12.843692 -101.281010 -30.065235 17.185643 -3.318871 3.431544 0.618930 -0.187860 0.355330 0.077330 8.543626 32.552854 4.478067 24.848776 39.247584 -7.489251 -119.938612 49.901453 -97.268126 2.176567 -0.880367 0.059760 0.167640 -0.211660 -0.222780 
-0.335250 17.622590 -3.109340 14.172480 -27.389971 -25.821325 -15.989707 11.303452 6.920268 17.626964 1.068602 -61.509497 -14.046466 18.918159 46.795793 0.568290 10.879886 0.554575 0.702980 0.538230 0.654510 17.963146 -9.301466 0.972737 -16.744253 2.061169 6.522174 5.475091 -7.419061 22.939590 -0.858450 -5.393078 2.467971 0.227090 -0.254140 0.243050 -1.868017 -3.689985 -8.958895 -8.657196 9.333543 47.358384 3.747217 8.655948 18.442051 1.907766 -8.123793 -12.043778 -15.188537 11.983012 39.928210 -11.289650 5.203030 -27.211380 -12.901417 -14.591131 10.727399 -28.069913 14.981169 -12.025442 -104.694398 -31.919759 21.060851 -3.310090 3.461982 0.643170 -0.201620 0.370320 0.067830 8.263395 32.130836 4.428677 24.755604 38.959649 -7.043673 -122.740351 49.225797 -100.918711 2.169764 -0.997392 0.064280 0.147220 -0.206240 -0.233200 
-0.305680 17.623630 -3.052660 13.495984 -29.394059 -26.016228 -15.884315 11.436271 6.726377 18.314991 0.914138 -56.895700 -16.171235 21.024498 49.084531 0.763003 11.572073 0.353124 0.705090 0.526150 0.671850 18.012506 -9.535074 0.969610 -16.094742 2.050840 5.437876 4.382539 -7.253284 24.993026 -0.863186 -5.394588 2.455426 0.222780 -0.269570 0.249210 -2.023175 -3.378878 -8.865856 -6.667750 8.595710 47.535045 2.725788 8.633635 18.925390 2.017862 -8.044972 -12.036796 -15.119291 11.995037 39.969610 -11.778880 5.282620 -27.897780 -12.565517 -14.292607 10.674390 -25.428632 15.554846 -11.409617 -106.167110 -32.815051 23.039969 -3.304035 3.474058 0.666680 -0.211750 0.379260 0.056990 7.627361 31.321569 4.441058 25.814328 39.067001 -6.564032 -124.472661 48.707740 -103.434412 2.158087 -1.062103 0.057510 0.142600 -0.201150 -0.249710 
-0.281730 17.616300 -3.001540 12.397599 -31.258805 -26.112300 -15.726219 11.655884 6.394104 17.747813 0.495206 -52.236089 -15.975251 22.208839 51.962957 0.952407 12.010838 0.239785 0.719940 0.550630 0.697120 18.078204 -9.867762 1.060908 -14.846445 1.994774 4.496587 3.054394 -6.942081 27.012111 -0.888446 -5.393131 2.456762 0.218990 -0.292910 0.255790 -2.283342 -2.950247 -8.715559 -3.861010 7.453308 48.197840 1.172898 8.416378 19.260333 2.227398 -8.130706 -12.108790 -15.351311 12.182347 39.930978 -12.766830 5.452980 -28.690710 -12.310012 -14.371069 10.592559 -22.023108 15.932251 -10.871424 -106.123535 -32.343800 22.582960 -3.291227 3.475443 0.662310 -0.223430 0.405510 0.056500 6.931661 30.868536 4.543835 26.734966 39.057702 -6.385222 -125.997448 48.212569 -105.818156 2.167914 -1.111220 0.081840 0.138370 -0.217880 -0.244260 
